<?xml version="1.0" encoding="UTF-8" standalone="no"?>
<svg
   xmlns:dc="http://purl.org/dc/elements/1.1/"
   xmlns:cc="http://creativecommons.org/ns#"
   xmlns:rdf="http://www.w3.org/1999/02/22-rdf-syntax-ns#"
   xmlns:svg="http://www.w3.org/2000/svg"
   xmlns="http://www.w3.org/2000/svg"
   xmlns:sodipodi="http://sodipodi.sourceforge.net/DTD/sodipodi-0.dtd"
   xmlns:inkscape="http://www.inkscape.org/namespaces/inkscape"
   width="300"
   height="300"
   viewBox="0 0 79.375 79.374999"
   version="1.1"
   id="svg8"
   sodipodi:docname="chikaraWhite.svg"
   inkscape:version="1.0.2 (e86c870879, 2021-01-15)">
  <defs
     id="defs2">
    <rect
       x="40.625912"
       y="88.854507"
       width="107.07636"
       height="93.551346"
       id="rect859" />
    <rect
       x="57.378998"
       y="80.408806"
       width="155.54779"
       height="134.20213"
       id="rect853" />
    <rect
       x="56.777359"
       y="79.312645"
       width="86.993027"
       height="100.68288"
       id="rect847" />
    <rect
       x="49.665829"
       y="82.642288"
       width="122.62741"
       height="121.26975"
       id="rect841" />
    <rect
       x="62.341133"
       y="123.72238"
       width="115.76303"
       height="66.860443"
       id="rect835" />
  </defs>
  <sodipodi:namedview
     id="base"
     pagecolor="#ffffff"
     bordercolor="#666666"
     borderopacity="1.0"
     inkscape:pageopacity="0.0"
     inkscape:pageshadow="2"
     inkscape:zoom="0.36441975"
     inkscape:cx="269.8859"
     inkscape:cy="667.28099"
     inkscape:document-units="px"
     inkscape:current-layer="layer1"
     inkscape:document-rotation="0"
     showgrid="false"
     inkscape:window-width="1334"
     inkscape:window-height="738"
     inkscape:window-x="32"
     inkscape:window-y="0"
     inkscape:window-maximized="1"
     units="px" />
  <metadata
     id="metadata5">
    <rdf:RDF>
      <cc:Work
         rdf:about="">
        <dc:format>image/svg+xml</dc:format>
        <dc:type
           rdf:resource="http://purl.org/dc/dcmitype/StillImage" />
        <dc:title></dc:title>
      </cc:Work>
    </rdf:RDF>
  </metadata>
  <g
     inkscape:label="Layer 1"
     inkscape:groupmode="layer"
     id="layer1">
    <g
       aria-label="Hello"
       id="text857"
       style="font-size:14.1111px;line-height:1.25;font-family:sans-serif;letter-spacing:0px;word-spacing:0px;white-space:pre;shape-inside:url(#rect859)" />
    <text
       xml:space="preserve"
       id="text833"
       style="font-style:normal;font-variant:normal;font-weight:normal;font-stretch:normal;font-size:14.1111px;line-height:1.25;font-family:HakusyuGyosyoNenga;-inkscape-font-specification:HakusyuGyosyoNenga;letter-spacing:0px;word-spacing:0px;white-space:pre;shape-inside:url(#rect835);" />
    <text
       xml:space="preserve"
       id="text851"
       style="font-style:normal;font-variant:normal;font-weight:normal;font-stretch:normal;font-size:14.1111px;line-height:1.25;font-family:Jamrul;-inkscape-font-specification:Jamrul;letter-spacing:0px;word-spacing:0px;white-space:pre;shape-inside:url(#rect853);" />
    <path
       style="fill:#ffffff;stroke-width:0.239621"
       d="m 47.841906,69.747954 c -0.668007,-0.707701 -1.012536,-1.404476 -1.641904,-3.32062 -0.294952,-0.897993 -0.789636,-1.831481 -1.142808,-2.156572 -0.342502,-0.315276 -0.816916,-0.886566 -1.054259,-1.269535 -0.237359,-0.382998 -0.993669,-1.274705 -1.680701,-1.981578 -0.687061,-0.706873 -1.199587,-1.334813 -1.138979,-1.395405 0.06056,-0.0607 1.720838,0.199534 3.689432,0.578088 4.891477,0.940617 5.279829,0.985725 5.694266,0.661279 1.134751,-0.888367 4.938698,-8.097394 6.224089,-11.795527 0.460473,-1.324855 1.116624,-3.53535 1.458098,-4.912215 0.848856,-3.422608 2.823463,-15.843801 2.734916,-17.203825 l -0.07185,-1.10347 -1.074358,-0.182295 c -0.779822,-0.132262 -1.929443,-0.01817 -4.193358,0.416966 -1.715454,0.329574 -4.449614,0.764009 -6.075893,0.965399 -1.626291,0.201392 -3.998552,0.57786 -5.271643,0.836615 -1.890932,0.384341 -2.408686,0.585659 -2.827836,1.099599 -0.282194,0.346015 -1.183231,2.259488 -2.002276,4.252178 -2.184373,5.314312 -6.18304,13.325173 -8.113078,16.253567 -0.926307,1.405463 -1.863728,2.902571 -2.083162,3.326892 -0.219431,0.424348 -0.860672,1.266763 -1.424971,1.872062 -0.564302,0.605271 -1.370176,1.686113 -1.790833,2.401842 -3.631768,6.179208 -10.041759,10.852468 -15.388254,11.218937 -1.5831869,0.108565 -1.8717468,0.07127 -1.8717468,-0.241713 0,-0.203506 0.3695332,-0.588044 0.821185,-0.854528 1.7459468,-1.030119 5.4497718,-4.196243 7.4743138,-6.389254 3.754907,-4.067316 7.004094,-8.869617 11.431639,-16.895962 3.11433,-5.645727 6.667718,-13.22237 6.350135,-13.539946 -0.185148,-0.185147 -4.027085,0.983711 -6.188789,1.882876 -2.577966,1.072332 -4.063094,1.468184 -4.806549,1.281222 -0.321694,-0.081 -2.148424,-1.076902 -4.059395,-2.21331 -3.316998,-1.972579 -5.632206,-3.794719 -5.366923,-4.223954 0.236766,-0.383096 1.557345,-0.196277 2.254138,0.318891 0.437997,0.323819 1.177337,0.557948 1.967166,0.622953 1.326652,0.109268 5.041114,-0.441247 6.890467,-1.021035 0.596382,-0.186983 2.324367,-0.552691 3.839962,-0.812674 5.564614,-0.954586 7.182671,-1.287676 7.543205,-1.552917 0.532605,-0.391823 2.637185,-9.118442 3.136281,-13.004595 0.149493,-1.163976 0.113839,-1.279276 -0.647951,-2.0986359 -0.44339,-0.476856 -1.391634,-1.162648 -2.107218,-1.52399 -2.151653,-1.086485 -1.966918,-1.271306 1.732149,-1.732908 1.65586,-0.206633 2.038085,-0.175281 3.354672,0.275095 4.500722,1.539604 6.037639,3.119473 5.006275,5.1461739 -0.259269,0.509468 -0.809889,1.886618 -1.223568,3.060351 -0.413708,1.173717 -1.224926,3.330304 -1.802713,4.792401 -0.57779,1.462099 -1.128666,3.076705 -1.224141,3.588002 l -0.173621,0.929618 2.129176,-0.166568 c 1.171046,-0.0917 3.423107,-0.315748 5.004618,-0.498098 1.581485,-0.182354 4.099927,-0.405536 5.59655,-0.496012 2.190982,-0.132418 2.928709,-0.274853 3.786693,-0.731057 0.586073,-0.311619 1.412775,-0.566574 1.837123,-0.566574 1.11514,0 3.553063,1.513548 5.599463,3.476344 1.479552,1.419087 1.750734,1.801285 1.750734,2.467534 0,0.514911 -0.193704,0.971412 -0.55839,1.316087 -0.469416,0.443603 -0.739112,1.424944 -1.6926,6.158767 -1.515519,7.524119 -1.744848,8.381118 -4.257935,15.911921 -2.788712,8.356764 -2.955878,8.780942 -4.458456,11.313355 -2.107549,3.552035 -4.559585,6.585018 -5.929495,7.334357 -1.561028,0.853883 -3.223787,0.90652 -3.961085,0.125405 z"
       id="path878" />
  </g>
</svg>
