<?xml version="1.0" encoding="UTF-8" standalone="no"?>
<svg
   xmlns:dc="http://purl.org/dc/elements/1.1/"
   xmlns:cc="http://creativecommons.org/ns#"
   xmlns:rdf="http://www.w3.org/1999/02/22-rdf-syntax-ns#"
   xmlns:svg="http://www.w3.org/2000/svg"
   xmlns="http://www.w3.org/2000/svg"
   xmlns:sodipodi="http://sodipodi.sourceforge.net/DTD/sodipodi-0.dtd"
   xmlns:inkscape="http://www.inkscape.org/namespaces/inkscape"
   width="210mm"
   height="297mm"
   viewBox="0 0 210 297"
   version="1.1"
   id="svg8"
   inkscape:version="1.0.2 (e86c870879, 2021-01-15)"
   sodipodi:docname="chikara.svg">
  <defs
     id="defs2">
    <rect
       x="40.625912"
       y="88.854511"
       width="107.07636"
       height="93.551345"
       id="rect859" />
    <rect
       x="57.378996"
       y="80.408805"
       width="155.54779"
       height="134.20213"
       id="rect853" />
    <rect
       x="56.777358"
       y="79.312642"
       width="86.993029"
       height="100.68288"
       id="rect847" />
    <rect
       x="49.665827"
       y="82.642289"
       width="122.62741"
       height="121.26975"
       id="rect841" />
    <rect
       x="62.341133"
       y="123.72238"
       width="115.76303"
       height="66.860445"
       id="rect835" />
  </defs>
  <sodipodi:namedview
     id="base"
     pagecolor="#ffffff"
     bordercolor="#666666"
     borderopacity="1.0"
     inkscape:pageopacity="0.0"
     inkscape:pageshadow="2"
     inkscape:zoom="0.35"
     inkscape:cx="400"
     inkscape:cy="560"
     inkscape:document-units="mm"
     inkscape:current-layer="layer1"
     inkscape:document-rotation="0"
     showgrid="false"
     inkscape:window-width="1334"
     inkscape:window-height="738"
     inkscape:window-x="32"
     inkscape:window-y="0"
     inkscape:window-maximized="1" />
  <metadata
     id="metadata5">
    <rdf:RDF>
      <cc:Work
         rdf:about="">
        <dc:format>image/svg+xml</dc:format>
        <dc:type
           rdf:resource="http://purl.org/dc/dcmitype/StillImage" />
        <dc:title></dc:title>
      </cc:Work>
    </rdf:RDF>
  </metadata>
  <g
     inkscape:label="Layer 1"
     inkscape:groupmode="layer"
     id="layer1">
    <g
       aria-label="Hello"
       id="text857"
       style="font-size:14.1111px;line-height:1.25;font-family:sans-serif;letter-spacing:0px;word-spacing:0px;white-space:pre;shape-inside:url(#rect859)" />
    <text
       xml:space="preserve"
       id="text833"
       style="font-family:HakusyuGyosyoNenga;font-size:14.11111111px;line-height:1.25;letter-spacing:0px;word-spacing:0px;white-space:pre;shape-inside:url(#rect835);-inkscape-font-specification:HakusyuGyosyoNenga;font-weight:normal;font-style:normal;font-stretch:normal;font-variant:normal;" />
    <text
       xml:space="preserve"
       id="text851"
       style="font-style:normal;font-variant:normal;font-weight:normal;font-stretch:normal;font-size:14.1111px;line-height:1.25;font-family:Jamrul;-inkscape-font-specification:Jamrul;letter-spacing:0px;word-spacing:0px;white-space:pre;shape-inside:url(#rect853);" />
    <path
       style="fill:#ffffff;stroke-width:0.564261"
       d="m 122.80261,207.54094 c -1.57305,-1.66649 -2.38435,-3.30728 -3.86641,-7.81944 -0.69455,-2.1146 -1.85942,-4.31282 -2.69108,-5.07835 -0.80652,-0.74239 -1.92369,-2.08768 -2.48261,-2.98953 -0.55891,-0.90188 -2.33989,-3.00168 -3.95774,-4.66622 -1.61785,-1.66457 -2.82479,-3.14324 -2.68209,-3.28593 0.14269,-0.14268 4.05228,0.46988 8.68796,1.3613 11.51852,2.21496 12.43303,2.32117 13.40895,1.55715 2.67209,-2.09189 11.62971,-19.06784 14.65654,-27.77624 1.08436,-3.1198 2.62948,-8.32511 3.4336,-11.56736 1.99886,-8.0596 6.6487,-37.30923 6.44019,-40.51184 l -0.16916,-2.59848 -2.52992,-0.42925 c -1.83635,-0.31156 -4.54347,-0.0424 -9.87458,0.98188 -4.03956,0.77611 -10.47798,1.79911 -14.30761,2.27334 -3.82963,0.47423 -9.41582,1.36077 -12.41375,1.97009 -4.45278,0.90501 -5.67201,1.3791 -6.65901,2.58933 -0.66453,0.81481 -2.78628,5.3207 -4.71501,10.01308 -5.143775,12.51425 -14.559895,31.37836 -19.104775,38.27417 -2.18128,3.3096 -4.38873,6.83501 -4.90546,7.83423 -0.51672,0.99923 -2.02672,2.98297 -3.35554,4.40832 -1.32883,1.42533 -3.22651,3.97049 -4.21708,5.65588 -8.55214,14.55092 -23.64648,25.55558 -36.236483,26.41854 -3.728111,0.25553 -4.407617,0.16784 -4.407617,-0.56918 0,-0.47923 0.870182,-1.38473 1.933736,-2.01224 4.111383,-2.42577 12.833204,-9.88142 17.600624,-15.0455 8.84211,-9.5778 16.49334,-20.88632 26.91939,-39.7869 7.33367,-13.29463 15.70124,-31.13622 14.9534,-31.88406 -0.43599,-0.43599 -9.48305,2.31649 -14.57346,4.43385 -6.07065,2.52509 -9.56785,3.45729 -11.31855,3.01702 -0.75753,-0.19051 -5.05914,-2.53588 -9.55912,-5.21195 -7.81092,-4.64503 -13.2628,-8.93585 -12.63811,-9.94662 0.55754,-0.90212 3.66726,-0.46219 5.30808,0.75092 1.0314,0.76255 2.77241,1.31388 4.63231,1.46695 3.12402,0.2571 11.87089,-1.03904 16.22577,-2.40437 1.40437,-0.4403 5.47345,-1.30146 9.0424,-1.9137 13.10364,-2.24785 16.91385,-3.03225 17.76283,-3.65681 1.2542,-0.92266 6.210095,-21.472255 7.385375,-30.623396 0.35202,-2.740966 0.26818,-3.012488 -1.52583,-4.941935 -1.04407,-1.122891 -3.277009,-2.7378 -4.962075,-3.588687 -5.06674,-2.558492 -4.63173,-2.993698 4.078865,-4.080669 3.89926,-0.486579 4.79934,-0.41277 7.89966,0.647775 10.59837,3.625463 14.21753,7.345768 11.78882,12.118293 -0.61053,1.199704 -1.9071,4.44265 -2.88127,7.206549 -0.97418,2.763896 -2.88445,7.842251 -4.24505,11.285221 -1.3606,3.44298 -2.65778,7.24506 -2.88263,8.44906 l -0.40883,2.189099 5.0138,-0.392234 c 2.75759,-0.215725 8.06081,-0.743545 11.78494,-1.172925 3.72412,-0.42938 9.6546,-0.95498 13.17885,-1.16801 5.15938,-0.31185 6.89657,-0.64723 8.91697,-1.72149 1.3801,-0.73381 3.32684,-1.33419 4.32609,-1.33419 2.62593,0 8.3668,3.56412 13.18572,8.186119 3.48406,3.3417 4.12262,4.24171 4.12262,5.81063 0,1.21249 -0.45611,2.28751 -1.3149,3.09911 -1.10538,1.04464 -1.74046,3.35547 -3.98577,14.50278 -3.56876,17.71791 -4.10879,19.736 -10.02664,37.46962 -6.5669,19.67863 -6.96054,20.67749 -10.49881,26.64085 -4.9629,8.36437 -10.73699,15.5065 -13.9629,17.27104 -3.67594,2.01072 -7.5914,2.13469 -9.32761,0.29531 z"
       id="path878" />
  </g>
</svg>
