<?xml version="1.0" encoding="UTF-8" standalone="no"?>
<svg
   xmlns:osb="http://www.openswatchbook.org/uri/2009/osb"
   xmlns:dc="http://purl.org/dc/elements/1.1/"
   xmlns:cc="http://creativecommons.org/ns#"
   xmlns:rdf="http://www.w3.org/1999/02/22-rdf-syntax-ns#"
   xmlns:svg="http://www.w3.org/2000/svg"
   xmlns="http://www.w3.org/2000/svg"
   xmlns:sodipodi="http://sodipodi.sourceforge.net/DTD/sodipodi-0.dtd"
   xmlns:inkscape="http://www.inkscape.org/namespaces/inkscape"
   width="210mm"
   height="297mm"
   viewBox="0 0 210 297"
   version="1.1"
   id="svg8"
   inkscape:version="1.0.2 (e86c870879, 2021-01-15)"
   sodipodi:docname="logoFinalPurple.svg">
  <defs
     id="defs2">
    <linearGradient
       id="linearGradient1187"
       osb:paint="solid">
      <stop
         style="stop-color:#33dc00;stop-opacity:1;"
         offset="0"
         id="stop1185" />
    </linearGradient>
    <inkscape:path-effect
       effect="powerstroke"
       id="path-effect1173"
       is_visible="true"
       lpeversion="1"
       offset_points="0.88575118,3.720703"
       sort_points="true"
       interpolator_type="CentripetalCatmullRom"
       interpolator_beta="0.75"
       start_linecap_type="round"
       linejoin_type="spiro"
       miter_limit="4"
       scale_width="1"
       end_linecap_type="round" />
    <inkscape:path-effect
       effect="simplify"
       id="path-effect1171"
       is_visible="true"
       lpeversion="1"
       steps="1"
       threshold="0.0032025118"
       smooth_angles="0"
       helper_size="0"
       simplify_individual_paths="false"
       simplify_just_coalesce="false"
       step="1" />
    <meshgradient
       inkscape:collect="always"
       id="meshgradient4246"
       gradientUnits="userSpaceOnUse"
       x="37.464996"
       y="80.886536"
       gradientTransform="matrix(1.0070514,0,0,0.98481895,958.90622,53.588299)">
      <meshrow
         id="meshrow4248">
        <meshpatch
           id="meshpatch4250">
          <stop
             path="c 17.3412,0  34.6824,0  52.0236,0"
             style="stop-color:#ffffff;stop-opacity:1"
             id="stop4252" />
          <stop
             path="c 0,18.1807  0,36.3614  0,54.5421"
             style="stop-color:#ff2a2a;stop-opacity:1"
             id="stop4254" />
          <stop
             path="c -17.3412,0  -34.6824,0  -52.0236,0"
             style="stop-color:#ffffff;stop-opacity:1"
             id="stop4256" />
          <stop
             path="c 0,-18.1807  0,-36.3614  0,-54.5421"
             style="stop-color:#ff2a2a;stop-opacity:1"
             id="stop4258" />
        </meshpatch>
      </meshrow>
    </meshgradient>
  </defs>
  <sodipodi:namedview
     id="base"
     pagecolor="#ffffff"
     bordercolor="#666666"
     borderopacity="1.0"
     inkscape:pageopacity="0.0"
     inkscape:pageshadow="2"
     inkscape:zoom="0.65975396"
     inkscape:cx="468.52147"
     inkscape:cy="543.90228"
     inkscape:document-units="mm"
     inkscape:current-layer="layer1"
     inkscape:document-rotation="0"
     showgrid="false"
     showborder="true"
     inkscape:window-width="1888"
     inkscape:window-height="1050"
     inkscape:window-x="32"
     inkscape:window-y="0"
     inkscape:window-maximized="1"
     units="mm">
    <inkscape:grid
       type="xygrid"
       id="grid853" />
  </sodipodi:namedview>
  <metadata
     id="metadata5">
    <rdf:RDF>
      <cc:Work
         rdf:about="">
        <dc:format>image/svg+xml</dc:format>
        <dc:type
           rdf:resource="http://purl.org/dc/dcmitype/StillImage" />
        <dc:title></dc:title>
      </cc:Work>
    </rdf:RDF>
  </metadata>
  <g
     inkscape:label="Layer 1"
     inkscape:groupmode="layer"
     id="layer1">
    <path
       id="rect845"
       style="opacity:0.736025;fill:#c887ff;fill-opacity:1;stroke-width:0.264583"
       d="M 948.14155,133.24689 V 234.13117 H 1049.0258 V 133.24689 Z m 3.06596,2.11667 h 46.52791 v 32.45641 c 0.81523,-0.38449 0.7387,1.36069 0.72502,2.11667 0.002,0.62013 0.004,0.90365 0.006,1.4149 0.006,0.0106 0.0106,0.0183 0.0165,0.0289 0.52004,0.93725 0.2569,2.08201 0.10026,3.19412 0.0703,-0.0449 0.14018,-0.0909 0.21083,-0.13488 0.12256,-0.0762 0.27179,-0.16574 0.43925,-0.26044 0.19763,-0.39838 0.39994,-0.79372 0.61909,-1.17823 V 135.36356 H 1046.38 v 47.29995 h -41.6336 c -0.075,0.64784 -0.1511,1.29549 -0.2651,1.93735 -0.01,0.0557 -0.022,0.12196 -0.033,0.17932 h 41.9313 v 47.29995 h -45.159 c -0.3652,0.0752 -0.7812,0.0812 -1.24386,0 h -0.12506 v -0.0238 c -0.28367,-0.0585 -0.58195,-0.14555 -0.89762,-0.27337 -0.39472,-0.15982 -0.8051,-0.24992 -1.21904,-0.32401 v 0.62115 h -46.52791 v -47.29996 h 0.90072 c -0.96781,-0.64251 -1.26366,-1.64071 -0.90072,-2.49184 z m 47.19918,58.76695 c -0.008,0.0306 -0.01,0.0429 0.01,0.009 7.9e-4,-0.002 10e-4,-0.003 0.002,-0.005 -0.003,-0.001 -0.009,-0.004 -0.0119,-0.005 z m 0.67335,31.98358 c -0.001,0.005 0.011,0.0166 0.0398,0.0346 0.0214,0.0134 0.0441,0.0246 0.0656,0.0377 -10e-4,-0.019 -10e-4,-0.0312 -0.002,-0.0496 -0.0522,-0.0161 -0.1019,-0.0314 -0.10335,-0.0227 z" />
    <path
       id="rect845-3"
       style="opacity:0.418666;fill:#2b00ff;fill-opacity:1;stroke-width:0.264583"
       d="M 996.78612,85.946937 V 186.83122 H 1097.6704 V 85.946937 Z m 49.70908,1.859833 c 0.8658,0.02778 1.5229,0.476549 2.0015,1.129647 v -0.872813 h 46.5279 v 47.299956 h -0.9581 c -0.075,0.12124 -0.1527,0.24384 -0.23,0.3669 0.4035,0.79824 0.4625,0.72148 -0.3374,1.58078 -0.042,0.0446 -0.08,0.10465 -0.1168,0.16898 h 1.6423 v 0.0713 c 0.1255,-0.0627 0.2512,-0.1254 0.3767,-0.18811 -0.056,0.0515 -0.1273,0.0908 -0.1695,0.15452 -0.073,0.11094 -0.14,0.22626 -0.2072,0.34106 v 46.92117 h -46.5279 v -41.15821 c -0.053,-0.16101 -0.1062,-0.32208 -0.1592,-0.48318 -0.295,0.0955 -0.5654,0.16417 -0.8129,0.20878 -0.2907,0.17753 -0.6673,0.29705 -1.1446,0.34623 v 41.08638 H 999.85208 V 137.4802 h 44.38692 c -0.091,-0.67075 -0.1884,-1.399 -0.2847,-2.11666 H 999.85208 V 88.063604 h 45.29082 c 0.4101,-0.15748 0.7886,-0.23916 1.1358,-0.255283 0.073,-0.0034 0.1458,-0.0038 0.2165,-0.0016 z" />
    <rect
       style="opacity:0.774091;fill:url(#meshgradient4246);fill-opacity:1;stroke-width:0.256447"
       id="rect1179"
       width="52.390434"
       height="53.714142"
       x="996.63538"
       y="133.24689" />
    <path
       id="rect1181"
       style="opacity:0.58575;fill:#6687ff;fill-opacity:1;stroke-width:0.298705"
       d="m 1204.875,-197.9717 -0.5091,0.48053 c 0.3221,-0.0454 0.6446,-0.0878 0.9669,-0.13206 z m -15.4792,14.61006 -0.046,0.0435 c 0.039,-0.009 0.078,-0.0183 0.1164,-0.0278 -0.022,-0.005 -0.049,-0.0107 -0.071,-0.0157 z m 42.9935,6.32328 c -0.1391,0.001 -0.381,0.004 -0.4975,0.005 -5.6039,0.0615 -11.2082,0.098 -16.8123,0.0477 -1.9629,0.25496 -3.9521,0.31159 -5.9304,0.33747 -1.0504,0.0137 -2.1017,-0.0433 -3.1511,0.003 -0.7447,0.0326 -1.4824,0.15565 -2.2234,0.23266 -0.7845,0.0815 -1.569,0.16205 -2.3535,0.24314 -2.6578,0.22711 -5.338,0.22176 -7.9894,-0.0844 -0.7564,-0.0873 -1.5021,-0.24326 -2.251,-0.37624 -0.4894,-0.0869 -0.7286,-0.13658 -0.888,-0.1724 0.1484,0.52926 0.387,1.09786 0.048,1.40279 0.028,0.32708 0.051,0.63859 0.062,0.74148 -0.01,0.99041 0.042,1.70536 -0.4038,1.87964 6e-4,0.1415 10e-5,0.28295 6e-4,0.42445 0.01,2.35398 0.023,4.70816 0.029,7.06215 0.1647,2.71755 -0.2919,5.41653 -0.364,8.12695 -0.02,0.7661 0.016,1.67487 0.039,2.44138 0.012,0.52177 -0.024,1.04654 0.036,1.56524 0.05,0.42824 0.1984,0.84138 0.2951,1.26235 0.066,0.28914 0.4484,2.05721 0.5912,2.45186 0.05,0.13744 0.1695,0.24258 0.2422,0.37048 0.095,0.16777 0.1739,0.34329 0.2609,0.51511 0.082,0.25193 0.2296,0.49238 0.2465,0.75563 0.025,0.38777 -0.026,0.77617 -0.073,1.16331 0.018,-0.009 0.038,-0.0128 0.065,-0.009 0.2447,0.0315 0.1742,0.43978 0.2416,0.66549 0.091,0.30571 0.1562,0.61801 0.2344,0.92698 0.2003,0.93143 0.04,1.66312 -0.1,2.55772 -0.029,0.18292 0.027,0.50234 0.033,0.67703 0.045,1.22329 0.024,2.44756 0.019,3.67124 -5e-4,1.10229 0,2.20478 0,3.30706 -3e-4,0.5944 -5e-4,1.18883 -5e-4,1.78322 0,0.17375 0.021,0.34832 0,0.52087 -0.097,0.78687 -0.1592,0.9855 -0.3199,1.51912 0.013,0.044 0.023,0.13978 0.03,0.25625 l 4.8074,3.65762 c 3.4947,-0.3678 7.0081,-0.0408 10.5211,0.007 4.7584,0.0644 4.7139,-0.0266 9.332,-0.35056 1.179,-0.1 2.3625,-0.16094 3.5371,-0.29974 4.3637,-0.51564 1.204,-0.39122 5.3646,-0.77921 0.806,-0.0752 1.6109,-0.0989 2.4153,-0.0922 1.3406,0.0111 2.6801,0.10586 4.022,0.18446 0.4212,0.027 0.8421,0.0584 1.2636,0.0807 0.5552,0.0293 1.5615,-0.0935 2.0171,-0.0314 0.7717,0.1051 1.5464,0.23666 2.2846,0.47476 0.133,0.0429 0.2624,0.094 0.3922,0.14463 0.1112,-0.27713 0.2528,-0.58073 0.418,-0.92489 0.1731,-0.70517 0.3412,-1.41146 0.4998,-2.11964 0.5725,-2.55701 0.9475,-4.28393 1.2443,-5.72957 -0.013,-0.19354 -0.028,-0.38708 -0.04,-0.58061 -0.1476,-2.38361 -0.1121,-2.03595 -0.1324,-4.44574 0.073,-4.28088 0.1745,-8.56309 0.097,-12.84465 -0.017,-1.96659 0,-3.93371 -10e-4,-5.90041 0.2594,-0.59853 0.5677,-1.17972 0.7783,-1.79528 0.042,-0.12255 -0.1855,-0.20281 -0.2151,-0.32856 -0.061,-0.25995 -0.087,-0.52643 -0.1219,-0.79074 -0.152,-1.14852 -0.1391,-1.15485 -0.224,-2.23858 -0.049,-0.11193 -0.255,-0.0231 -0.3066,-0.11529 -0.8391,-1.49723 -1.2023,-2.99675 -1.2311,-4.68574 0,-0.31991 0.047,-0.63821 0.071,-0.95737 0.4203,-0.10953 0.8376,-0.23379 1.2542,-0.36053 z m -51.4341,2.64208 c 0,-8e-4 0,0.0144 0,0.0498 -2e-4,0.15487 -0.01,0.30956 -0.015,0.46428 0.038,-0.24141 0.025,-0.51107 0.018,-0.51406 z m 57.899,4.95404 c -0.043,-0.0433 0.084,0.0891 0.1257,0.13362 0,-8e-4 0,-0.002 0.01,-0.003 -0.044,-0.044 -0.09,-0.0868 -0.134,-0.131 z m -67.4388,3.05239 -1.1837,1.11719 c 0.1268,0.14361 0.2536,0.28716 0.3828,0.42917 0.067,-0.0947 0.1352,-0.18904 0.2063,-0.28139 0.1443,-0.18761 0.3701,-0.41868 0.6299,-0.6655 -0.016,-0.19988 -0.026,-0.39961 -0.035,-0.59947 z m -11.7489,11.08972 -0.1826,0.17188 0.1781,0.13572 c 0,-0.10254 0,-0.20504 0,-0.3076 z m 105.0605,2.86532 c 0.013,0.3831 0.029,0.79474 0.046,1.22881 l 0.7,-0.66078 z m -33.6411,28.8098 c -0.03,0.0197 -0.074,0.0694 -0.1097,0.12262 0.029,0.007 0.058,0.0157 0.087,0.023 5e-4,0.007 0,0.0133 0,0.0199 0.016,-0.0513 0.033,-0.10217 0.047,-0.15406 0,-0.006 -2e-4,-0.007 -6e-4,-0.01 -0.01,-5.4e-4 -0.018,-0.001 -0.026,-0.002 z" />
    <path
       id="path3871"
       style="opacity:0.109536;fill:#ff2a2a;stroke-width:0.310065"
       d="M 1171.6253,-69.450318 A 168.74579,160.28892 0 0 0 1002.8795,90.838601 168.74579,160.28892 0 0 0 1171.6253,251.12753 168.74579,160.28892 0 0 0 1340.3715,90.838601 168.74579,160.28892 0 0 0 1171.6253,-69.450318 Z m 0,16.8429 A 151.0143,143.44606 0 0 1 1322.6398,90.838601 151.0143,143.44606 0 0 1 1171.6253,234.28463 151.0143,143.44606 0 0 1 1020.6112,90.838601 151.0143,143.44606 0 0 1 1171.6253,-52.607418 Z" />
    <path
       id="path3897"
       style="opacity:0.109536;fill:#ff2a2a;stroke-width:0.316341"
       d="m 865.43649,93.051207 a 177.63302,166.86911 0 0 0 -17.48266,72.189913 177.63302,166.86911 0 0 0 177.63307,166.8694 177.63302,166.86911 0 0 0 67.5106,-12.5212 180.81051,186.20593 58.327564 0 1 -36.1363,7.71942 180.81051,186.20593 58.327564 0 1 -200.30195,-160.2791 180.81051,186.20593 58.327564 0 1 8.77724,-73.978433 z" />
    <path
       id="path3897-9"
       style="opacity:0.109536;fill:#ff2a2a;stroke-width:0.316341"
       d="m 1020.4105,-9.3735478 a 177.63302,166.86911 0 0 0 -67.32148,12.5212 180.81051,186.20593 58.327575 0 1 36.1363,-7.719425 180.81051,186.20593 58.327575 0 1 200.30198,160.2791128 180.81051,186.20593 58.327575 0 1 -8.7772,73.97842 177.63302,166.86911 0 0 0 17.4826,-72.18991 177.63302,166.86911 0 0 0 -177.6336,-166.8693978 177.63302,166.86911 0 0 0 -0.1886,0 z" />
    <g
    class="animate-spin"
       id="g4787"
       transform="translate(-5.381789,-1.870774)">
      <path
         id="rect4361"
         style="fill:#8b5cf6;fill-opacity:1;stroke-width:0.102902"
         d="m 204.58451,120.94213 -95.18337,-88.743832 -90.793772,97.382042 20.86941,19.45751 3.72679,-3.99722 -16.96244,-15.81487 83.340182,-89.387604 87.36945,81.458554 -83.34019,89.38761 -60.740882,-56.63153 -3.72679,3.99722 64.647842,60.27417 z" />
      <path
         id="rect4361-2"
         style="fill:#8b5cf6;fill-opacity:1;stroke-width:0.102902"
         d="m 202.15619,171.16121 -20.93056,-19.51452 -3.72679,3.99722 17.02361,15.87188 -83.34019,89.38761 -87.369452,-81.45857 83.340192,-89.387598 60.80203,56.688538 3.72679,-3.99722 -64.70899,-60.33117 -90.793762,97.38204 95.183362,88.74383 z" />
    </g>
    <text
       xml:space="preserve"
       style="font-size:29.1957px;line-height:1.25;font-family:sans-serif;letter-spacing:0px;word-spacing:0px;opacity:0.82463;fill:#cc5cf6;fill-opacity:1;stroke-width:0.54742"
       x="67.229057"
       y="158.75626"
       id="text4452"
       transform="rotate(0.1384713)"><tspan
         sodipodi:role="line"
         id="tspan4450"
         x="67.229057"
         y="158.75626"
         style="font-style:normal;font-variant:normal;font-weight:normal;font-stretch:normal;font-family:Orbitron;-inkscape-font-specification:Orbitron;fill:#cc5cf6;fill-opacity:1;stroke-width:0.54742">TANI</tspan></text>
  </g>
  <script
     id="mesh_polyfill"
     type="text/javascript">
!function(){const t=&quot;http://www.w3.org/2000/svg&quot;,e=&quot;http://www.w3.org/1999/xlink&quot;,s=&quot;http://www.w3.org/1999/xhtml&quot;,r=2;if(document.createElementNS(t,&quot;meshgradient&quot;).x)return;const n=(t,e,s,r)=&gt;{let n=new x(.5*(e.x+s.x),.5*(e.y+s.y)),o=new x(.5*(t.x+e.x),.5*(t.y+e.y)),i=new x(.5*(s.x+r.x),.5*(s.y+r.y)),a=new x(.5*(n.x+o.x),.5*(n.y+o.y)),h=new x(.5*(n.x+i.x),.5*(n.y+i.y)),l=new x(.5*(a.x+h.x),.5*(a.y+h.y));return[[t,o,a,l],[l,h,i,r]]},o=t=&gt;{let e=t[0].distSquared(t[1]),s=t[2].distSquared(t[3]),r=.25*t[0].distSquared(t[2]),n=.25*t[1].distSquared(t[3]),o=e&gt;s?e:s,i=r&gt;n?r:n;return 18*(o&gt;i?o:i)},i=(t,e)=&gt;Math.sqrt(t.distSquared(e)),a=(t,e)=&gt;t.scale(2/3).add(e.scale(1/3)),h=t=&gt;{let e,s,r,n,o,i,a,h=new g;return t.match(/(\w+\(\s*[^)]+\))+/g).forEach(t=&gt;{let l=t.match(/[\w.-]+/g),d=l.shift();switch(d){case&quot;translate&quot;:2===l.length?e=new g(1,0,0,1,l[0],l[1]):(console.error(&quot;mesh.js: translate does not have 2 arguments!&quot;),e=new g(1,0,0,1,0,0)),h=h.append(e);break;case&quot;scale&quot;:1===l.length?s=new g(l[0],0,0,l[0],0,0):2===l.length?s=new g(l[0],0,0,l[1],0,0):(console.error(&quot;mesh.js: scale does not have 1 or 2 arguments!&quot;),s=new g(1,0,0,1,0,0)),h=h.append(s);break;case&quot;rotate&quot;:if(3===l.length&amp;&amp;(e=new g(1,0,0,1,l[1],l[2]),h=h.append(e)),l[0]){r=l[0]*Math.PI/180;let t=Math.cos(r),e=Math.sin(r);Math.abs(t)&lt;1e-16&amp;&amp;(t=0),Math.abs(e)&lt;1e-16&amp;&amp;(e=0),a=new g(t,e,-e,t,0,0),h=h.append(a)}else console.error(&quot;math.js: No argument to rotate transform!&quot;);3===l.length&amp;&amp;(e=new g(1,0,0,1,-l[1],-l[2]),h=h.append(e));break;case&quot;skewX&quot;:l[0]?(r=l[0]*Math.PI/180,n=Math.tan(r),o=new g(1,0,n,1,0,0),h=h.append(o)):console.error(&quot;math.js: No argument to skewX transform!&quot;);break;case&quot;skewY&quot;:l[0]?(r=l[0]*Math.PI/180,n=Math.tan(r),i=new g(1,n,0,1,0,0),h=h.append(i)):console.error(&quot;math.js: No argument to skewY transform!&quot;);break;case&quot;matrix&quot;:6===l.length?h=h.append(new g(...l)):console.error(&quot;math.js: Incorrect number of arguments for matrix!&quot;);break;default:console.error(&quot;mesh.js: Unhandled transform type: &quot;+d)}}),h},l=t=&gt;{let e=[],s=t.split(/[ ,]+/);for(let t=0,r=s.length-1;t&lt;r;t+=2)e.push(new x(parseFloat(s[t]),parseFloat(s[t+1])));return e},d=(t,e)=&gt;{for(let s in e)t.setAttribute(s,e[s])},c=(t,e,s,r,n)=&gt;{let o,i,a=[0,0,0,0];for(let h=0;h&lt;3;++h)e[h]&lt;t[h]&amp;&amp;e[h]&lt;s[h]||t[h]&lt;e[h]&amp;&amp;s[h]&lt;e[h]?a[h]=0:(a[h]=.5*((e[h]-t[h])/r+(s[h]-e[h])/n),o=Math.abs(3*(e[h]-t[h])/r),i=Math.abs(3*(s[h]-e[h])/n),a[h]&gt;o?a[h]=o:a[h]&gt;i&amp;&amp;(a[h]=i));return a},u=[[1,0,0,0,0,0,0,0,0,0,0,0,0,0,0,0],[0,0,0,0,1,0,0,0,0,0,0,0,0,0,0,0],[-3,3,0,0,-2,-1,0,0,0,0,0,0,0,0,0,0],[2,-2,0,0,1,1,0,0,0,0,0,0,0,0,0,0],[0,0,0,0,0,0,0,0,1,0,0,0,0,0,0,0],[0,0,0,0,0,0,0,0,0,0,0,0,1,0,0,0],[0,0,0,0,0,0,0,0,-3,3,0,0,-2,-1,0,0],[0,0,0,0,0,0,0,0,2,-2,0,0,1,1,0,0],[-3,0,3,0,0,0,0,0,-2,0,-1,0,0,0,0,0],[0,0,0,0,-3,0,3,0,0,0,0,0,-2,0,-1,0],[9,-9,-9,9,6,3,-6,-3,6,-6,3,-3,4,2,2,1],[-6,6,6,-6,-3,-3,3,3,-4,4,-2,2,-2,-2,-1,-1],[2,0,-2,0,0,0,0,0,1,0,1,0,0,0,0,0],[0,0,0,0,2,0,-2,0,0,0,0,0,1,0,1,0],[-6,6,6,-6,-4,-2,4,2,-3,3,-3,3,-2,-1,-2,-1],[4,-4,-4,4,2,2,-2,-2,2,-2,2,-2,1,1,1,1]],f=t=&gt;{let e=[];for(let s=0;s&lt;16;++s){e[s]=0;for(let r=0;r&lt;16;++r)e[s]+=u[s][r]*t[r]}return e},p=(t,e,s)=&gt;{const r=e*e,n=s*s,o=e*e*e,i=s*s*s;return t[0]+t[1]*e+t[2]*r+t[3]*o+t[4]*s+t[5]*s*e+t[6]*s*r+t[7]*s*o+t[8]*n+t[9]*n*e+t[10]*n*r+t[11]*n*o+t[12]*i+t[13]*i*e+t[14]*i*r+t[15]*i*o},y=t=&gt;{let e=[],s=[],r=[];for(let s=0;s&lt;4;++s)e[s]=[],e[s][0]=n(t[0][s],t[1][s],t[2][s],t[3][s]),e[s][1]=[],e[s][1].push(...n(...e[s][0][0])),e[s][1].push(...n(...e[s][0][1])),e[s][2]=[],e[s][2].push(...n(...e[s][1][0])),e[s][2].push(...n(...e[s][1][1])),e[s][2].push(...n(...e[s][1][2])),e[s][2].push(...n(...e[s][1][3]));for(let t=0;t&lt;8;++t){s[t]=[];for(let r=0;r&lt;4;++r)s[t][r]=[],s[t][r][0]=n(e[0][2][t][r],e[1][2][t][r],e[2][2][t][r],e[3][2][t][r]),s[t][r][1]=[],s[t][r][1].push(...n(...s[t][r][0][0])),s[t][r][1].push(...n(...s[t][r][0][1])),s[t][r][2]=[],s[t][r][2].push(...n(...s[t][r][1][0])),s[t][r][2].push(...n(...s[t][r][1][1])),s[t][r][2].push(...n(...s[t][r][1][2])),s[t][r][2].push(...n(...s[t][r][1][3]))}for(let t=0;t&lt;8;++t){r[t]=[];for(let e=0;e&lt;8;++e)r[t][e]=[],r[t][e][0]=s[t][0][2][e],r[t][e][1]=s[t][1][2][e],r[t][e][2]=s[t][2][2][e],r[t][e][3]=s[t][3][2][e]}return r};class x{constructor(t,e){this.x=t||0,this.y=e||0}toString(){return`(x=${this.x}, y=${this.y})`}clone(){return new x(this.x,this.y)}add(t){return new x(this.x+t.x,this.y+t.y)}scale(t){return void 0===t.x?new x(this.x*t,this.y*t):new x(this.x*t.x,this.y*t.y)}distSquared(t){let e=this.x-t.x,s=this.y-t.y;return e*e+s*s}transform(t){let e=this.x*t.a+this.y*t.c+t.e,s=this.x*t.b+this.y*t.d+t.f;return new x(e,s)}}class g{constructor(t,e,s,r,n,o){void 0===t?(this.a=1,this.b=0,this.c=0,this.d=1,this.e=0,this.f=0):(this.a=t,this.b=e,this.c=s,this.d=r,this.e=n,this.f=o)}toString(){return`affine: ${this.a} ${this.c} ${this.e} \n       ${this.b} ${this.d} ${this.f}`}append(t){t instanceof g||console.error(&quot;mesh.js: argument to Affine.append is not affine!&quot;);let e=this.a*t.a+this.c*t.b,s=this.b*t.a+this.d*t.b,r=this.a*t.c+this.c*t.d,n=this.b*t.c+this.d*t.d,o=this.a*t.e+this.c*t.f+this.e,i=this.b*t.e+this.d*t.f+this.f;return new g(e,s,r,n,o,i)}}class w{constructor(t,e){this.nodes=t,this.colors=e}paintCurve(t,e){if(o(this.nodes)&gt;r){const s=n(...this.nodes);let r=[[],[]],o=[[],[]];for(let t=0;t&lt;4;++t)r[0][t]=this.colors[0][t],r[1][t]=(this.colors[0][t]+this.colors[1][t])/2,o[0][t]=r[1][t],o[1][t]=this.colors[1][t];let i=new w(s[0],r),a=new w(s[1],o);i.paintCurve(t,e),a.paintCurve(t,e)}else{let s=Math.round(this.nodes[0].x);if(s&gt;=0&amp;&amp;s&lt;e){let r=4*(~~this.nodes[0].y*e+s);t[r]=Math.round(this.colors[0][0]),t[r+1]=Math.round(this.colors[0][1]),t[r+2]=Math.round(this.colors[0][2]),t[r+3]=Math.round(this.colors[0][3])}}}}class m{constructor(t,e){this.nodes=t,this.colors=e}split(){let t=[[],[],[],[]],e=[[],[],[],[]],s=[[[],[]],[[],[]]],r=[[[],[]],[[],[]]];for(let s=0;s&lt;4;++s){const r=n(this.nodes[0][s],this.nodes[1][s],this.nodes[2][s],this.nodes[3][s]);t[0][s]=r[0][0],t[1][s]=r[0][1],t[2][s]=r[0][2],t[3][s]=r[0][3],e[0][s]=r[1][0],e[1][s]=r[1][1],e[2][s]=r[1][2],e[3][s]=r[1][3]}for(let t=0;t&lt;4;++t)s[0][0][t]=this.colors[0][0][t],s[0][1][t]=this.colors[0][1][t],s[1][0][t]=(this.colors[0][0][t]+this.colors[1][0][t])/2,s[1][1][t]=(this.colors[0][1][t]+this.colors[1][1][t])/2,r[0][0][t]=s[1][0][t],r[0][1][t]=s[1][1][t],r[1][0][t]=this.colors[1][0][t],r[1][1][t]=this.colors[1][1][t];return[new m(t,s),new m(e,r)]}paint(t,e){let s,n=!1;for(let t=0;t&lt;4;++t)if((s=o([this.nodes[0][t],this.nodes[1][t],this.nodes[2][t],this.nodes[3][t]]))&gt;r){n=!0;break}if(n){let s=this.split();s[0].paint(t,e),s[1].paint(t,e)}else{new w([...this.nodes[0]],[...this.colors[0]]).paintCurve(t,e)}}}class b{constructor(t){this.readMesh(t),this.type=t.getAttribute(&quot;type&quot;)||&quot;bilinear&quot;}readMesh(t){let e=[[]],s=[[]],r=Number(t.getAttribute(&quot;x&quot;)),n=Number(t.getAttribute(&quot;y&quot;));e[0][0]=new x(r,n);let o=t.children;for(let t=0,r=o.length;t&lt;r;++t){e[3*t+1]=[],e[3*t+2]=[],e[3*t+3]=[],s[t+1]=[];let r=o[t].children;for(let n=0,o=r.length;n&lt;o;++n){let o=r[n].children;for(let r=0,i=o.length;r&lt;i;++r){let i=r;0!==t&amp;&amp;++i;let h,d=o[r].getAttribute(&quot;path&quot;),c=&quot;l&quot;;null!=d&amp;&amp;(c=(h=d.match(/\s*([lLcC])\s*(.*)/))[1]);let u=l(h[2]);switch(c){case&quot;l&quot;:0===i?(e[3*t][3*n+3]=u[0].add(e[3*t][3*n]),e[3*t][3*n+1]=a(e[3*t][3*n],e[3*t][3*n+3]),e[3*t][3*n+2]=a(e[3*t][3*n+3],e[3*t][3*n])):1===i?(e[3*t+3][3*n+3]=u[0].add(e[3*t][3*n+3]),e[3*t+1][3*n+3]=a(e[3*t][3*n+3],e[3*t+3][3*n+3]),e[3*t+2][3*n+3]=a(e[3*t+3][3*n+3],e[3*t][3*n+3])):2===i?(0===n&amp;&amp;(e[3*t+3][3*n+0]=u[0].add(e[3*t+3][3*n+3])),e[3*t+3][3*n+1]=a(e[3*t+3][3*n],e[3*t+3][3*n+3]),e[3*t+3][3*n+2]=a(e[3*t+3][3*n+3],e[3*t+3][3*n])):(e[3*t+1][3*n]=a(e[3*t][3*n],e[3*t+3][3*n]),e[3*t+2][3*n]=a(e[3*t+3][3*n],e[3*t][3*n]));break;case&quot;L&quot;:0===i?(e[3*t][3*n+3]=u[0],e[3*t][3*n+1]=a(e[3*t][3*n],e[3*t][3*n+3]),e[3*t][3*n+2]=a(e[3*t][3*n+3],e[3*t][3*n])):1===i?(e[3*t+3][3*n+3]=u[0],e[3*t+1][3*n+3]=a(e[3*t][3*n+3],e[3*t+3][3*n+3]),e[3*t+2][3*n+3]=a(e[3*t+3][3*n+3],e[3*t][3*n+3])):2===i?(0===n&amp;&amp;(e[3*t+3][3*n+0]=u[0]),e[3*t+3][3*n+1]=a(e[3*t+3][3*n],e[3*t+3][3*n+3]),e[3*t+3][3*n+2]=a(e[3*t+3][3*n+3],e[3*t+3][3*n])):(e[3*t+1][3*n]=a(e[3*t][3*n],e[3*t+3][3*n]),e[3*t+2][3*n]=a(e[3*t+3][3*n],e[3*t][3*n]));break;case&quot;c&quot;:0===i?(e[3*t][3*n+1]=u[0].add(e[3*t][3*n]),e[3*t][3*n+2]=u[1].add(e[3*t][3*n]),e[3*t][3*n+3]=u[2].add(e[3*t][3*n])):1===i?(e[3*t+1][3*n+3]=u[0].add(e[3*t][3*n+3]),e[3*t+2][3*n+3]=u[1].add(e[3*t][3*n+3]),e[3*t+3][3*n+3]=u[2].add(e[3*t][3*n+3])):2===i?(e[3*t+3][3*n+2]=u[0].add(e[3*t+3][3*n+3]),e[3*t+3][3*n+1]=u[1].add(e[3*t+3][3*n+3]),0===n&amp;&amp;(e[3*t+3][3*n+0]=u[2].add(e[3*t+3][3*n+3]))):(e[3*t+2][3*n]=u[0].add(e[3*t+3][3*n]),e[3*t+1][3*n]=u[1].add(e[3*t+3][3*n]));break;case&quot;C&quot;:0===i?(e[3*t][3*n+1]=u[0],e[3*t][3*n+2]=u[1],e[3*t][3*n+3]=u[2]):1===i?(e[3*t+1][3*n+3]=u[0],e[3*t+2][3*n+3]=u[1],e[3*t+3][3*n+3]=u[2]):2===i?(e[3*t+3][3*n+2]=u[0],e[3*t+3][3*n+1]=u[1],0===n&amp;&amp;(e[3*t+3][3*n+0]=u[2])):(e[3*t+2][3*n]=u[0],e[3*t+1][3*n]=u[1]);break;default:console.error(&quot;mesh.js: &quot;+c+&quot; invalid path type.&quot;)}if(0===t&amp;&amp;0===n||r&gt;0){let e=window.getComputedStyle(o[r]).stopColor.match(/^rgb\s*\(\s*(\d+)\s*,\s*(\d+)\s*,\s*(\d+)\s*\)$/i),a=window.getComputedStyle(o[r]).stopOpacity,h=255;a&amp;&amp;(h=Math.floor(255*a)),e&amp;&amp;(0===i?(s[t][n]=[],s[t][n][0]=Math.floor(e[1]),s[t][n][1]=Math.floor(e[2]),s[t][n][2]=Math.floor(e[3]),s[t][n][3]=h):1===i?(s[t][n+1]=[],s[t][n+1][0]=Math.floor(e[1]),s[t][n+1][1]=Math.floor(e[2]),s[t][n+1][2]=Math.floor(e[3]),s[t][n+1][3]=h):2===i?(s[t+1][n+1]=[],s[t+1][n+1][0]=Math.floor(e[1]),s[t+1][n+1][1]=Math.floor(e[2]),s[t+1][n+1][2]=Math.floor(e[3]),s[t+1][n+1][3]=h):3===i&amp;&amp;(s[t+1][n]=[],s[t+1][n][0]=Math.floor(e[1]),s[t+1][n][1]=Math.floor(e[2]),s[t+1][n][2]=Math.floor(e[3]),s[t+1][n][3]=h))}}e[3*t+1][3*n+1]=new x,e[3*t+1][3*n+2]=new x,e[3*t+2][3*n+1]=new x,e[3*t+2][3*n+2]=new x,e[3*t+1][3*n+1].x=(-4*e[3*t][3*n].x+6*(e[3*t][3*n+1].x+e[3*t+1][3*n].x)+-2*(e[3*t][3*n+3].x+e[3*t+3][3*n].x)+3*(e[3*t+3][3*n+1].x+e[3*t+1][3*n+3].x)+-1*e[3*t+3][3*n+3].x)/9,e[3*t+1][3*n+2].x=(-4*e[3*t][3*n+3].x+6*(e[3*t][3*n+2].x+e[3*t+1][3*n+3].x)+-2*(e[3*t][3*n].x+e[3*t+3][3*n+3].x)+3*(e[3*t+3][3*n+2].x+e[3*t+1][3*n].x)+-1*e[3*t+3][3*n].x)/9,e[3*t+2][3*n+1].x=(-4*e[3*t+3][3*n].x+6*(e[3*t+3][3*n+1].x+e[3*t+2][3*n].x)+-2*(e[3*t+3][3*n+3].x+e[3*t][3*n].x)+3*(e[3*t][3*n+1].x+e[3*t+2][3*n+3].x)+-1*e[3*t][3*n+3].x)/9,e[3*t+2][3*n+2].x=(-4*e[3*t+3][3*n+3].x+6*(e[3*t+3][3*n+2].x+e[3*t+2][3*n+3].x)+-2*(e[3*t+3][3*n].x+e[3*t][3*n+3].x)+3*(e[3*t][3*n+2].x+e[3*t+2][3*n].x)+-1*e[3*t][3*n].x)/9,e[3*t+1][3*n+1].y=(-4*e[3*t][3*n].y+6*(e[3*t][3*n+1].y+e[3*t+1][3*n].y)+-2*(e[3*t][3*n+3].y+e[3*t+3][3*n].y)+3*(e[3*t+3][3*n+1].y+e[3*t+1][3*n+3].y)+-1*e[3*t+3][3*n+3].y)/9,e[3*t+1][3*n+2].y=(-4*e[3*t][3*n+3].y+6*(e[3*t][3*n+2].y+e[3*t+1][3*n+3].y)+-2*(e[3*t][3*n].y+e[3*t+3][3*n+3].y)+3*(e[3*t+3][3*n+2].y+e[3*t+1][3*n].y)+-1*e[3*t+3][3*n].y)/9,e[3*t+2][3*n+1].y=(-4*e[3*t+3][3*n].y+6*(e[3*t+3][3*n+1].y+e[3*t+2][3*n].y)+-2*(e[3*t+3][3*n+3].y+e[3*t][3*n].y)+3*(e[3*t][3*n+1].y+e[3*t+2][3*n+3].y)+-1*e[3*t][3*n+3].y)/9,e[3*t+2][3*n+2].y=(-4*e[3*t+3][3*n+3].y+6*(e[3*t+3][3*n+2].y+e[3*t+2][3*n+3].y)+-2*(e[3*t+3][3*n].y+e[3*t][3*n+3].y)+3*(e[3*t][3*n+2].y+e[3*t+2][3*n].y)+-1*e[3*t][3*n].y)/9}}this.nodes=e,this.colors=s}paintMesh(t,e){let s=(this.nodes.length-1)/3,r=(this.nodes[0].length-1)/3;if(&quot;bilinear&quot;===this.type||s&lt;2||r&lt;2){let n;for(let o=0;o&lt;s;++o)for(let s=0;s&lt;r;++s){let r=[];for(let t=3*o,e=3*o+4;t&lt;e;++t)r.push(this.nodes[t].slice(3*s,3*s+4));let i=[];i.push(this.colors[o].slice(s,s+2)),i.push(this.colors[o+1].slice(s,s+2)),(n=new m(r,i)).paint(t,e)}}else{let n,o,a,h,l,d,u;const x=s,g=r;s++,r++;let w=new Array(s);for(let t=0;t&lt;s;++t){w[t]=new Array(r);for(let e=0;e&lt;r;++e)w[t][e]=[],w[t][e][0]=this.nodes[3*t][3*e],w[t][e][1]=this.colors[t][e]}for(let t=0;t&lt;s;++t)for(let e=0;e&lt;r;++e)0!==t&amp;&amp;t!==x&amp;&amp;(n=i(w[t-1][e][0],w[t][e][0]),o=i(w[t+1][e][0],w[t][e][0]),w[t][e][2]=c(w[t-1][e][1],w[t][e][1],w[t+1][e][1],n,o)),0!==e&amp;&amp;e!==g&amp;&amp;(n=i(w[t][e-1][0],w[t][e][0]),o=i(w[t][e+1][0],w[t][e][0]),w[t][e][3]=c(w[t][e-1][1],w[t][e][1],w[t][e+1][1],n,o));for(let t=0;t&lt;r;++t){w[0][t][2]=[],w[x][t][2]=[];for(let e=0;e&lt;4;++e)n=i(w[1][t][0],w[0][t][0]),o=i(w[x][t][0],w[x-1][t][0]),w[0][t][2][e]=n&gt;0?2*(w[1][t][1][e]-w[0][t][1][e])/n-w[1][t][2][e]:0,w[x][t][2][e]=o&gt;0?2*(w[x][t][1][e]-w[x-1][t][1][e])/o-w[x-1][t][2][e]:0}for(let t=0;t&lt;s;++t){w[t][0][3]=[],w[t][g][3]=[];for(let e=0;e&lt;4;++e)n=i(w[t][1][0],w[t][0][0]),o=i(w[t][g][0],w[t][g-1][0]),w[t][0][3][e]=n&gt;0?2*(w[t][1][1][e]-w[t][0][1][e])/n-w[t][1][3][e]:0,w[t][g][3][e]=o&gt;0?2*(w[t][g][1][e]-w[t][g-1][1][e])/o-w[t][g-1][3][e]:0}for(let s=0;s&lt;x;++s)for(let r=0;r&lt;g;++r){let n=i(w[s][r][0],w[s+1][r][0]),o=i(w[s][r+1][0],w[s+1][r+1][0]),c=i(w[s][r][0],w[s][r+1][0]),x=i(w[s+1][r][0],w[s+1][r+1][0]),g=[[],[],[],[]];for(let t=0;t&lt;4;++t){(d=[])[0]=w[s][r][1][t],d[1]=w[s+1][r][1][t],d[2]=w[s][r+1][1][t],d[3]=w[s+1][r+1][1][t],d[4]=w[s][r][2][t]*n,d[5]=w[s+1][r][2][t]*n,d[6]=w[s][r+1][2][t]*o,d[7]=w[s+1][r+1][2][t]*o,d[8]=w[s][r][3][t]*c,d[9]=w[s+1][r][3][t]*x,d[10]=w[s][r+1][3][t]*c,d[11]=w[s+1][r+1][3][t]*x,d[12]=0,d[13]=0,d[14]=0,d[15]=0,u=f(d);for(let e=0;e&lt;9;++e){g[t][e]=[];for(let s=0;s&lt;9;++s)g[t][e][s]=p(u,e/8,s/8),g[t][e][s]&gt;255?g[t][e][s]=255:g[t][e][s]&lt;0&amp;&amp;(g[t][e][s]=0)}}h=[];for(let t=3*s,e=3*s+4;t&lt;e;++t)h.push(this.nodes[t].slice(3*r,3*r+4));l=y(h);for(let s=0;s&lt;8;++s)for(let r=0;r&lt;8;++r)(a=new m(l[s][r],[[[g[0][s][r],g[1][s][r],g[2][s][r],g[3][s][r]],[g[0][s][r+1],g[1][s][r+1],g[2][s][r+1],g[3][s][r+1]]],[[g[0][s+1][r],g[1][s+1][r],g[2][s+1][r],g[3][s+1][r]],[g[0][s+1][r+1],g[1][s+1][r+1],g[2][s+1][r+1],g[3][s+1][r+1]]]])).paint(t,e)}}}transform(t){if(t instanceof x)for(let e=0,s=this.nodes.length;e&lt;s;++e)for(let s=0,r=this.nodes[0].length;s&lt;r;++s)this.nodes[e][s]=this.nodes[e][s].add(t);else if(t instanceof g)for(let e=0,s=this.nodes.length;e&lt;s;++e)for(let s=0,r=this.nodes[0].length;s&lt;r;++s)this.nodes[e][s]=this.nodes[e][s].transform(t)}scale(t){for(let e=0,s=this.nodes.length;e&lt;s;++e)for(let s=0,r=this.nodes[0].length;s&lt;r;++s)this.nodes[e][s]=this.nodes[e][s].scale(t)}}document.querySelectorAll(&quot;rect,circle,ellipse,path,text&quot;).forEach((r,n)=&gt;{let o=r.getAttribute(&quot;id&quot;);o||(o=&quot;patchjs_shape&quot;+n,r.setAttribute(&quot;id&quot;,o));const i=r.style.fill.match(/^url\(\s*&quot;?\s*#([^\s&quot;]+)&quot;?\s*\)/),a=r.style.stroke.match(/^url\(\s*&quot;?\s*#([^\s&quot;]+)&quot;?\s*\)/);if(i&amp;&amp;i[1]){const a=document.getElementById(i[1]);if(a&amp;&amp;&quot;meshgradient&quot;===a.nodeName){const i=r.getBBox();let l=document.createElementNS(s,&quot;canvas&quot;);d(l,{width:i.width,height:i.height});const c=l.getContext(&quot;2d&quot;);let u=c.createImageData(i.width,i.height);const f=new b(a);&quot;objectBoundingBox&quot;===a.getAttribute(&quot;gradientUnits&quot;)&amp;&amp;f.scale(new x(i.width,i.height));const p=a.getAttribute(&quot;gradientTransform&quot;);null!=p&amp;&amp;f.transform(h(p)),&quot;userSpaceOnUse&quot;===a.getAttribute(&quot;gradientUnits&quot;)&amp;&amp;f.transform(new x(-i.x,-i.y)),f.paintMesh(u.data,l.width),c.putImageData(u,0,0);const y=document.createElementNS(t,&quot;image&quot;);d(y,{width:i.width,height:i.height,x:i.x,y:i.y});let g=l.toDataURL();y.setAttributeNS(e,&quot;xlink:href&quot;,g),r.parentNode.insertBefore(y,r),r.style.fill=&quot;none&quot;;const w=document.createElementNS(t,&quot;use&quot;);w.setAttributeNS(e,&quot;xlink:href&quot;,&quot;#&quot;+o);const m=&quot;patchjs_clip&quot;+n,M=document.createElementNS(t,&quot;clipPath&quot;);M.setAttribute(&quot;id&quot;,m),M.appendChild(w),r.parentElement.insertBefore(M,r),y.setAttribute(&quot;clip-path&quot;,&quot;url(#&quot;+m+&quot;)&quot;),u=null,l=null,g=null}}if(a&amp;&amp;a[1]){const o=document.getElementById(a[1]);if(o&amp;&amp;&quot;meshgradient&quot;===o.nodeName){const i=parseFloat(r.style.strokeWidth.slice(0,-2))*(parseFloat(r.style.strokeMiterlimit)||parseFloat(r.getAttribute(&quot;stroke-miterlimit&quot;))||1),a=r.getBBox(),l=Math.trunc(a.width+i),c=Math.trunc(a.height+i),u=Math.trunc(a.x-i/2),f=Math.trunc(a.y-i/2);let p=document.createElementNS(s,&quot;canvas&quot;);d(p,{width:l,height:c});const y=p.getContext(&quot;2d&quot;);let g=y.createImageData(l,c);const w=new b(o);&quot;objectBoundingBox&quot;===o.getAttribute(&quot;gradientUnits&quot;)&amp;&amp;w.scale(new x(l,c));const m=o.getAttribute(&quot;gradientTransform&quot;);null!=m&amp;&amp;w.transform(h(m)),&quot;userSpaceOnUse&quot;===o.getAttribute(&quot;gradientUnits&quot;)&amp;&amp;w.transform(new x(-u,-f)),w.paintMesh(g.data,p.width),y.putImageData(g,0,0);const M=document.createElementNS(t,&quot;image&quot;);d(M,{width:l,height:c,x:0,y:0});let S=p.toDataURL();M.setAttributeNS(e,&quot;xlink:href&quot;,S);const k=&quot;pattern_clip&quot;+n,A=document.createElementNS(t,&quot;pattern&quot;);d(A,{id:k,patternUnits:&quot;userSpaceOnUse&quot;,width:l,height:c,x:u,y:f}),A.appendChild(M),o.parentNode.appendChild(A),r.style.stroke=&quot;url(#&quot;+k+&quot;)&quot;,g=null,p=null,S=null}}})}();
</script>
<style>
@keyframes spin {
  from {
    -webkit-transform: rotate(0deg);
    transform: rotate(0deg);
  }
  to {
    -webkit-transform: rotate(360deg);
    transform: rotate(360deg);
  }
}
@-webkit-keyframes spin {
  from {
    -webkit-transform: rotate(0deg);
    transform: rotate(0deg);
  }
  to {
    -webkit-transform: rotate(360deg);
    transform: rotate(360deg);
  }
}
.animate-spin {
  -webkit-animation: spin 3s linear infinite;
  animation: spin 1s linear infinite;
  transform-origin: center;
}
</style>
</svg>
